<?xml version="1.0" encoding="UTF-8" standalone="no"?>
<svg width="180px" height="156px" viewBox="0 0 180 156" version="1.1" xmlns="http://www.w3.org/2000/svg" xmlns:xlink="http://www.w3.org/1999/xlink" xmlns:sketch="http://www.bohemiancoding.com/sketch/ns">
    <!-- Generator: Sketch 3.4.4 (17249) - http://www.bohemiancoding.com/sketch -->
    <title>Path 48</title>
    <desc>Created with Sketch.</desc>
    <defs></defs>
    <g id="1.-Product-Page-/-Widget" stroke="none" stroke-width="1" fill="none" fill-rule="evenodd" sketch:type="MSPage">
        <path d="M22.3515625,73.5527344 L18.7460938,76.5957031 L20.1152344,83.8457031 L24.3925781,90.0546875 L32.8808594,96.9589844 L37.8945312,105.292969 L44.1738281,115.933594 L52.9453125,125.941406 L58.5214844,129.068359 L67.6621094,130.957031 L75.0039062,129.068359 L79.28125,129.568359 L83.0390625,125.003906 L90.0527344,125.310547 L97.0683594,123.767578 L99.9355469,121.248047 L104.326172,119.748047 L106.388672,116.142578 L110.6875,102.814453 L110.6875,99.0371094 L110.339844,95.5839844 L112.945313,92.890625 L112.423828,87.0273438 L114.486328,81.5761719 L116.464844,89.265625 L121.091797,88.765625 L117.617446,94.6558647 C117.054232,95.6107103 117.435598,96.7115754 118.457544,97.1101495 L120.548828,97.9257812 L118.720638,102.572896 C118.31509,103.603767 118.880262,104.439453 119.985077,104.439453 L127.863281,104.439453 L121.328125,110.84375 L125.257812,112.794922 L121.480469,114.837891 L118.896484,117.873047 L119.417969,122.541016 L123.542969,124.777344 L124.257812,139.667969 L123.257812,145.917969 L119.480469,152.433594 L119.828125,155.691406 L126.605469,147.308594 L130.882812,148.544922 L132.751953,151.085938 L138.265625,152.800781 L140.330078,148.501953 L142.544922,143.203125 L140.175781,140.140625 L140.697266,137.015625 L142.066406,132.695312 L145.996094,133.216797 L149.40625,136.298828 L154.900391,137.341797 L156.636719,133.910156 L159.101563,128.90625 L154.822266,124.365234 L150.871094,123.865234 L148.501953,120.433594 L155.927734,119.392578 L160.53125,115.960938 L162.378906,112.705078 L171.734375,111.662109 L168.957031,107.667969 L159.205078,110.058594 L157.685547,106.648438 L158.705078,103.259766 L156.664062,97.4179688 L161.636719,95.5292969 L165.087891,95.5292969 L167.824219,92.5761719 L167.324219,87.7988281 L167.324219,83.3476562 L171.777344,82.3476563 L168.171875,79.5898437 L164.261719,79.0898438 L165.804688,75.0058594 L169.734375,72.9433594 L173.318359,72.9648438 L178.638672,68.0117188 L175.902344,65.234375 L176.769531,60.9550781 L173.859375,58.0253906 L168.886719,57.1777344 L169.234375,53.4003906 L165.587891,50.2949219 L158.878906,48.7324219 L155.642578,49.5800781 L156.164062,42.1757813 L151.517578,38.5703125 L148.607422,33.2304688 L149.802734,27.5429688 L146.044922,26.6953125 L143.830078,23.7851562 L143.830078,20.7011719 L143.330078,15.9023438 L140.419922,12.4921875 L137.509766,15.5761719 L129.716797,15.5761719 L120.464844,10.2128906 L115.839844,5.22070312 L106.810547,1.2265625 L101.470703,2.26757812 L93.8925781,1.76757812 L90.59375,2.2890625 L83.3632812,1.24804688 L85.0996094,8.609375 L87.140625,12.0195312 L82.1679688,12.3671875 L77.5019531,11.4980469 L73.9179688,14.9296875 L68.7714844,13.9296875 L68.7714844,8.046875 L60.4375,8.56640625 L56.875,13.2128906 L52.9003906,16.3183594 C52.9003906,16.3183594 48.6015625,20.4667969 48.6015625,16.8398438 C48.6015625,13.2128906 44.0703125,13.7558594 40.9824219,13.7558594 C37.8945312,13.7558594 34.96875,11.734375 34.96875,11.734375 L27.3496094,11.734375 L22.3769531,9.69335938 L21.8769531,16.3398438 L17.5976562,18.6875 L7.7421875,20.75 L1.29101562,24.4648438 L0.791015625,30.1113281 L14.0976562,26.3320312 L9.10546875,34.9511719 L9.10546875,41.5292969 L18.7871094,51.90625 L29.8105469,61.4003906 L38.9296875,62.4003906 L43.4238281,64.421875 L51.5429688,61.1640625 L52.3886719,57.9277344 L53.4316406,54.8867188 L58.2519531,54.8867188 L58.2519531,58.859375 L68.6699219,54.0390625 C68.6699219,54.0390625 67.6699219,54.859375 67.6699219,58.0117188 C67.6699219,61.1640625 60.8085938,62.1367188 60.8085938,62.1367188 L57.0507812,66.7832031 L54.8359375,71.4296875 L51.9667969,73.4511719 C51.9667969,73.4511719 52.5644531,73.9511719 47.9941406,73.9511719 C43.4238281,73.9511719 41.1953125,77.5761719 41.1953125,77.5761719 L36.875,77.5761719 L30.3613281,77.4023438 L26.0605469,78.9453125 L22.3515625,73.5527344 Z" id="Path-48" stroke="#979797" sketch:type="MSShapeGroup"></path>
    </g>
</svg>